<svg xmlns="http://www.w3.org/2000/svg" viewBox="0 0 120 40">
  <path d="M30.148 19.844c-.049-5.098 4.193-7.58 4.389-7.678-2.412-3.51-6.137-3.979-7.453-4.026-3.119-.319-6.138 1.864-7.729 1.864-1.64 0-4.096-1.815-6.735-1.766-3.412.049-6.58 2.017-8.315 5.05-3.607 6.187-.929 15.297 2.534 20.297 1.738 2.461 3.754 5.245 6.384 5.147 2.583-.098 3.558-1.64 6.679-1.64 3.071 0 3.998 1.64 6.679 1.591 2.778-.049 4.526-2.461 6.187-4.947 1.983-2.803 2.778-5.563 2.778-5.709-.049-.024-5.294-2.022-5.343-8.022M24.793 6.04c1.395-1.738 2.363-4.096 2.095-6.482-2.022.098-4.526 1.395-5.978 3.095-1.297 1.517-2.461 3.998-2.144 6.335 2.266.172 4.575-1.15 6.027-2.948"/>
</svg>